<svg width="19" height="19" viewBox="0 0 19 19" fill="currentColor" xmlns="http://www.w3.org/2000/svg">
<path d="M0.201365 0.201362C-0.0427163 0.445443 -0.0648998 0.827381 0.134796 1.09652L0.201365 1.17363L3.89972 4.87199C2.1379 6.109 0.821123 7.95657 0.273974 10.1424C0.181775 10.5107 0.405625 10.884 0.773951 10.9763C1.14229 11.0684 1.51562 10.8446 1.60782 10.4762C2.09317 8.53737 3.29186 6.91118 4.88965 5.86164L6.54847 7.52061C5.89992 8.18198 5.5 9.08811 5.5 10.0875C5.5 12.1126 7.14162 13.7542 9.16667 13.7542C10.1662 13.7542 11.0722 13.3543 11.7337 12.7057L17.1597 18.1319C17.4282 18.4004 17.8634 18.4004 18.1319 18.1319C18.376 17.8879 18.3982 17.5059 18.1985 17.2368L18.1319 17.1597L12.5279 11.555L12.529 11.5537L6.15887 5.18633L6.16 5.18466L5.12116 4.14836L1.17364 0.201362C0.905154 -0.0671206 0.469847 -0.0671206 0.201365 0.201362ZM9.16667 3.20833C8.24972 3.20833 7.36001 3.34406 6.5185 3.59791L7.65242 4.73109C8.14357 4.63404 8.65003 4.58333 9.16667 4.58333C12.7628 4.58333 15.8674 7.04024 16.7265 10.4804C16.8185 10.8487 17.1917 11.0728 17.5601 10.9808C17.9285 10.8888 18.1526 10.5156 18.0605 10.1472C17.0494 6.09832 13.3975 3.20833 9.16667 3.20833ZM9.34514 6.42517L12.8297 9.90916C12.7364 8.02367 11.2266 6.51533 9.34514 6.42517Z" fill="currentColor"/>
<path d="M0.201365 0.201362C-0.0427163 0.445443 -0.0648998 0.827381 0.134796 1.09652L0.201365 1.17363L3.89972 4.87199C2.1379 6.109 0.821123 7.95657 0.273974 10.1424C0.181775 10.5107 0.405625 10.884 0.773951 10.9763C1.14229 11.0684 1.51562 10.8446 1.60782 10.4762C2.09317 8.53737 3.29186 6.91118 4.88965 5.86164L6.54847 7.52061C5.89992 8.18198 5.5 9.08811 5.5 10.0875C5.5 12.1126 7.14162 13.7542 9.16667 13.7542C10.1662 13.7542 11.0722 13.3543 11.7337 12.7057L17.1597 18.1319C17.4282 18.4004 17.8634 18.4004 18.1319 18.1319C18.376 17.8879 18.3982 17.5059 18.1985 17.2368L18.1319 17.1597L12.5279 11.555L12.529 11.5537L6.15887 5.18633L6.16 5.18466L5.12116 4.14836L1.17364 0.201362C0.905154 -0.0671206 0.469847 -0.0671206 0.201365 0.201362ZM9.16667 3.20833C8.24972 3.20833 7.36001 3.34406 6.5185 3.59791L7.65242 4.73109C8.14357 4.63404 8.65003 4.58333 9.16667 4.58333C12.7628 4.58333 15.8674 7.04024 16.7265 10.4804C16.8185 10.8487 17.1917 11.0728 17.5601 10.9808C17.9285 10.8888 18.1526 10.5156 18.0605 10.1472C17.0494 6.09832 13.3975 3.20833 9.16667 3.20833ZM9.34514 6.42517L12.8297 9.90916C12.7364 8.02367 11.2266 6.51533 9.34514 6.42517Z" fill="currentColor" fill-opacity="0.2"/>
<path d="M0.201365 0.201362C-0.0427163 0.445443 -0.0648998 0.827381 0.134796 1.09652L0.201365 1.17363L3.89972 4.87199C2.1379 6.109 0.821123 7.95657 0.273974 10.1424C0.181775 10.5107 0.405625 10.884 0.773951 10.9763C1.14229 11.0684 1.51562 10.8446 1.60782 10.4762C2.09317 8.53737 3.29186 6.91118 4.88965 5.86164L6.54847 7.52061C5.89992 8.18198 5.5 9.08811 5.5 10.0875C5.5 12.1126 7.14162 13.7542 9.16667 13.7542C10.1662 13.7542 11.0722 13.3543 11.7337 12.7057L17.1597 18.1319C17.4282 18.4004 17.8634 18.4004 18.1319 18.1319C18.376 17.8879 18.3982 17.5059 18.1985 17.2368L18.1319 17.1597L12.5279 11.555L12.529 11.5537L6.15887 5.18633L6.16 5.18466L5.12116 4.14836L1.17364 0.201362C0.905154 -0.0671206 0.469847 -0.0671206 0.201365 0.201362ZM9.16667 3.20833C8.24972 3.20833 7.36001 3.34406 6.5185 3.59791L7.65242 4.73109C8.14357 4.63404 8.65003 4.58333 9.16667 4.58333C12.7628 4.58333 15.8674 7.04024 16.7265 10.4804C16.8185 10.8487 17.1917 11.0728 17.5601 10.9808C17.9285 10.8888 18.1526 10.5156 18.0605 10.1472C17.0494 6.09832 13.3975 3.20833 9.16667 3.20833ZM9.34514 6.42517L12.8297 9.90916C12.7364 8.02367 11.2266 6.51533 9.34514 6.42517Z" fill="currentColor" fill-opacity="0.2"/>
<path d="M0.201365 0.201362C-0.0427163 0.445443 -0.0648998 0.827381 0.134796 1.09652L0.201365 1.17363L3.89972 4.87199C2.1379 6.109 0.821123 7.95657 0.273974 10.1424C0.181775 10.5107 0.405625 10.884 0.773951 10.9763C1.14229 11.0684 1.51562 10.8446 1.60782 10.4762C2.09317 8.53737 3.29186 6.91118 4.88965 5.86164L6.54847 7.52061C5.89992 8.18198 5.5 9.08811 5.5 10.0875C5.5 12.1126 7.14162 13.7542 9.16667 13.7542C10.1662 13.7542 11.0722 13.3543 11.7337 12.7057L17.1597 18.1319C17.4282 18.4004 17.8634 18.4004 18.1319 18.1319C18.376 17.8879 18.3982 17.5059 18.1985 17.2368L18.1319 17.1597L12.5279 11.555L12.529 11.5537L6.15887 5.18633L6.16 5.18466L5.12116 4.14836L1.17364 0.201362C0.905154 -0.0671206 0.469847 -0.0671206 0.201365 0.201362ZM9.16667 3.20833C8.24972 3.20833 7.36001 3.34406 6.5185 3.59791L7.65242 4.73109C8.14357 4.63404 8.65003 4.58333 9.16667 4.58333C12.7628 4.58333 15.8674 7.04024 16.7265 10.4804C16.8185 10.8487 17.1917 11.0728 17.5601 10.9808C17.9285 10.8888 18.1526 10.5156 18.0605 10.1472C17.0494 6.09832 13.3975 3.20833 9.16667 3.20833ZM9.34514 6.42517L12.8297 9.90916C12.7364 8.02367 11.2266 6.51533 9.34514 6.42517Z" fill="currentColor" fill-opacity="0.2"/>
<path d="M0.201365 0.201362C-0.0427163 0.445443 -0.0648998 0.827381 0.134796 1.09652L0.201365 1.17363L3.89972 4.87199C2.1379 6.109 0.821123 7.95657 0.273974 10.1424C0.181775 10.5107 0.405625 10.884 0.773951 10.9763C1.14229 11.0684 1.51562 10.8446 1.60782 10.4762C2.09317 8.53737 3.29186 6.91118 4.88965 5.86164L6.54847 7.52061C5.89992 8.18198 5.5 9.08811 5.5 10.0875C5.5 12.1126 7.14162 13.7542 9.16667 13.7542C10.1662 13.7542 11.0722 13.3543 11.7337 12.7057L17.1597 18.1319C17.4282 18.4004 17.8634 18.4004 18.1319 18.1319C18.376 17.8879 18.3982 17.5059 18.1985 17.2368L18.1319 17.1597L12.5279 11.555L12.529 11.5537L6.15887 5.18633L6.16 5.18466L5.12116 4.14836L1.17364 0.201362C0.905154 -0.0671206 0.469847 -0.0671206 0.201365 0.201362ZM9.16667 3.20833C8.24972 3.20833 7.36001 3.34406 6.5185 3.59791L7.65242 4.73109C8.14357 4.63404 8.65003 4.58333 9.16667 4.58333C12.7628 4.58333 15.8674 7.04024 16.7265 10.4804C16.8185 10.8487 17.1917 11.0728 17.5601 10.9808C17.9285 10.8888 18.1526 10.5156 18.0605 10.1472C17.0494 6.09832 13.3975 3.20833 9.16667 3.20833ZM9.34514 6.42517L12.8297 9.90916C12.7364 8.02367 11.2266 6.51533 9.34514 6.42517Z" fill="currentColor" fill-opacity="0.2"/>
<path d="M0.201365 0.201362C-0.0427163 0.445443 -0.0648998 0.827381 0.134796 1.09652L0.201365 1.17363L3.89972 4.87199C2.1379 6.109 0.821123 7.95657 0.273974 10.1424C0.181775 10.5107 0.405625 10.884 0.773951 10.9763C1.14229 11.0684 1.51562 10.8446 1.60782 10.4762C2.09317 8.53737 3.29186 6.91118 4.88965 5.86164L6.54847 7.52061C5.89992 8.18198 5.5 9.08811 5.5 10.0875C5.5 12.1126 7.14162 13.7542 9.16667 13.7542C10.1662 13.7542 11.0722 13.3543 11.7337 12.7057L17.1597 18.1319C17.4282 18.4004 17.8634 18.4004 18.1319 18.1319C18.376 17.8879 18.3982 17.5059 18.1985 17.2368L18.1319 17.1597L12.5279 11.555L12.529 11.5537L6.15887 5.18633L6.16 5.18466L5.12116 4.14836L1.17364 0.201362C0.905154 -0.0671206 0.469847 -0.0671206 0.201365 0.201362ZM9.16667 3.20833C8.24972 3.20833 7.36001 3.34406 6.5185 3.59791L7.65242 4.73109C8.14357 4.63404 8.65003 4.58333 9.16667 4.58333C12.7628 4.58333 15.8674 7.04024 16.7265 10.4804C16.8185 10.8487 17.1917 11.0728 17.5601 10.9808C17.9285 10.8888 18.1526 10.5156 18.0605 10.1472C17.0494 6.09832 13.3975 3.20833 9.16667 3.20833ZM9.34514 6.42517L12.8297 9.90916C12.7364 8.02367 11.2266 6.51533 9.34514 6.42517Z" fill="currentColor" fill-opacity="0.2"/>
<path d="M0.201365 0.201362C-0.0427163 0.445443 -0.0648998 0.827381 0.134796 1.09652L0.201365 1.17363L3.89972 4.87199C2.1379 6.109 0.821123 7.95657 0.273974 10.1424C0.181775 10.5107 0.405625 10.884 0.773951 10.9763C1.14229 11.0684 1.51562 10.8446 1.60782 10.4762C2.09317 8.53737 3.29186 6.91118 4.88965 5.86164L6.54847 7.52061C5.89992 8.18198 5.5 9.08811 5.5 10.0875C5.5 12.1126 7.14162 13.7542 9.16667 13.7542C10.1662 13.7542 11.0722 13.3543 11.7337 12.7057L17.1597 18.1319C17.4282 18.4004 17.8634 18.4004 18.1319 18.1319C18.376 17.8879 18.3982 17.5059 18.1985 17.2368L18.1319 17.1597L12.5279 11.555L12.529 11.5537L6.15887 5.18633L6.16 5.18466L5.12116 4.14836L1.17364 0.201362C0.905154 -0.0671206 0.469847 -0.0671206 0.201365 0.201362ZM9.16667 3.20833C8.24972 3.20833 7.36001 3.34406 6.5185 3.59791L7.65242 4.73109C8.14357 4.63404 8.65003 4.58333 9.16667 4.58333C12.7628 4.58333 15.8674 7.04024 16.7265 10.4804C16.8185 10.8487 17.1917 11.0728 17.5601 10.9808C17.9285 10.8888 18.1526 10.5156 18.0605 10.1472C17.0494 6.09832 13.3975 3.20833 9.16667 3.20833ZM9.34514 6.42517L12.8297 9.90916C12.7364 8.02367 11.2266 6.51533 9.34514 6.42517Z" fill="currentColor" fill-opacity="0.2"/>
</svg>
