<svg width="44" height="39" viewBox="0 0 44 39" fill="none" xmlns="http://www.w3.org/2000/svg">
<path d="M17.2162 17.2137C21.9697 17.2137 25.8231 13.3603 25.8231 8.60685C25.8231 3.85342 21.9697 0 17.2162 0C12.4628 0 8.60938 3.85342 8.60938 8.60685C8.60938 13.3603 12.4628 17.2137 17.2162 17.2137Z" fill="currentColor"/>
<path d="M17.9668 21.5389C12.0926 21.3237 0 24.2501 0 30.1242V34.4277H20.5273C15.2126 28.4889 17.8807 21.7541 17.9668 21.5389Z" fill="currentColor"/>
<path d="M37.5029 30.1667C38.2775 28.8972 38.7293 27.4125 38.7293 25.8202C38.7293 21.0649 34.8778 17.2134 30.1225 17.2134C25.3672 17.2134 21.5156 21.0649 21.5156 25.8202C21.5156 30.5755 25.3672 34.4271 30.1225 34.4271C31.7147 34.4271 33.1994 33.9537 34.4689 33.2006L39.9988 38.7305L43.0328 35.6966L37.5029 30.1667ZM30.1225 30.1237C27.7556 30.1237 25.8191 28.1871 25.8191 25.8202C25.8191 23.4533 27.7556 21.5168 30.1225 21.5168C32.4894 21.5168 34.4259 23.4533 34.4259 25.8202C34.4259 28.1871 32.4894 30.1237 30.1225 30.1237Z" fill="currentColor"/>
</svg>
