<svg width="44" height="48" viewBox="0 0 44 48" fill="none" xmlns="http://www.w3.org/2000/svg">
<path d="M4.30343 8.60685H8.60685V15.062H30.124V8.60685H34.4274V19.3654H38.7308V8.60685C38.7308 6.23997 36.7943 4.30343 34.4274 4.30343H25.4332C24.5295 1.80744 22.1626 0 19.3654 0C16.5682 0 14.2013 1.80744 13.2976 4.30343H4.30343C1.93654 4.30343 0 6.23997 0 8.60685V38.7308C0 41.0977 1.93654 43.0343 4.30343 43.0343H15.062V38.7308H4.30343V8.60685ZM19.3654 4.30343C20.5489 4.30343 21.5171 5.2717 21.5171 6.45514C21.5171 7.63858 20.5489 8.60685 19.3654 8.60685C18.182 8.60685 17.2137 7.63858 17.2137 6.45514C17.2137 5.2717 18.182 4.30343 19.3654 4.30343Z" fill="currentColor"/>
<path d="M37.2264 38.5158C38.0871 37.0096 38.7326 35.2882 38.7326 33.3517C38.7326 27.9724 34.4292 23.6689 29.0499 23.6689C23.6706 23.6689 19.3672 27.9724 19.3672 33.3517C19.3672 38.7309 23.6706 43.0344 29.0499 43.0344C30.9864 43.0344 32.7078 42.3888 34.214 41.5282L40.0236 47.3378L43.036 44.3254L37.2264 38.5158ZM29.0499 38.7309C26.0375 38.7309 23.6706 36.364 23.6706 33.3517C23.6706 30.3393 26.0375 27.9724 29.0499 27.9724C32.0623 27.9724 34.4292 30.3393 34.4292 33.3517C34.4292 36.364 32.0623 38.7309 29.0499 38.7309Z" fill="currentColor"/>
</svg>
