<svg width="14" height="14" viewBox="0 0 14 14" fill="none" xmlns="http://www.w3.org/2000/svg">
<g clip-path="url(#clip0_562_827)">
<path d="M6.89184 3.13672C4.1143 3.13672 1.74228 4.86435 0.78125 7.30303C1.74228 9.74171 4.1143 11.4693 6.89184 11.4693C9.66938 11.4693 12.0414 9.74171 13.0024 7.30303C12.0414 4.86435 9.66938 3.13672 6.89184 3.13672ZM6.89184 10.0806C5.35864 10.0806 4.1143 8.83623 4.1143 7.30303C4.1143 5.76983 5.35864 4.52549 6.89184 4.52549C8.42504 4.52549 9.66938 5.76983 9.66938 7.30303C9.66938 8.83623 8.42504 10.0806 6.89184 10.0806ZM6.89184 5.6365C5.96969 5.6365 5.22531 6.38088 5.22531 7.30303C5.22531 8.22517 5.96969 8.96955 6.89184 8.96955C7.81398 8.96955 8.55836 8.22517 8.55836 7.30303C8.55836 6.38088 7.81398 5.6365 6.89184 5.6365Z" fill="white"/>
</g>
<defs>
<clipPath id="clip0_562_827">
<rect width="13.3322" height="13.3322" fill="white"/>
</clipPath>
</defs>
</svg>
