<svg width="179" height="162" viewBox="0 0 179 162" fill="none" xmlns="http://www.w3.org/2000/svg">
<g filter="url(#filter0_d_259_3938)">
<path d="M26.6781 151.729H152.178C165.011 151.729 173.011 137.812 166.595 126.729L103.845 18.3125C97.4281 7.22917 81.4281 7.22917 75.0114 18.3125L12.2614 126.729C5.84476 137.812 13.8448 151.729 26.6781 151.729ZM89.4281 93.3958C84.8448 93.3958 81.0948 89.6458 81.0948 85.0625V68.3958C81.0948 63.8125 84.8448 60.0625 89.4281 60.0625C94.0114 60.0625 97.7614 63.8125 97.7614 68.3958V85.0625C97.7614 89.6458 94.0114 93.3958 89.4281 93.3958ZM97.7614 126.729H81.0948V110.062H97.7614V126.729Z" fill="#27B999"/>
</g>
<defs>
<filter id="filter0_d_259_3938" x="0" y="0" width="178.855" height="161.729" filterUnits="userSpaceOnUse" color-interpolation-filters="sRGB">
<feFlood flood-opacity="0" result="BackgroundImageFix"/>
<feColorMatrix in="SourceAlpha" type="matrix" values="0 0 0 0 0 0 0 0 0 0 0 0 0 0 0 0 0 0 127 0" result="hardAlpha"/>
<feOffset/>
<feGaussianBlur stdDeviation="5"/>
<feComposite in2="hardAlpha" operator="out"/>
<feColorMatrix type="matrix" values="0 0 0 0 0.0579539 0 0 0 0 0.524996 0 0 0 0 0.430731 0 0 0 0.2 0"/>
<feBlend mode="normal" in2="BackgroundImageFix" result="effect1_dropShadow_259_3938"/>
<feBlend mode="normal" in="SourceGraphic" in2="effect1_dropShadow_259_3938" result="shape"/>
</filter>
</defs>
</svg>
