<svg width="50" height="50" viewBox="0 0 50 50" fill="none" xmlns="http://www.w3.org/2000/svg">
<path d="M35.625 5H14.375C9.19733 5 5 9.19733 5 14.375V35.625C5 40.8027 9.19733 45 14.375 45H35.625C40.8027 45 45 40.8027 45 35.625V14.375C45 9.19733 40.8027 5 35.625 5Z" fill="url(#paint0_radial_257_1322)"/>
<path d="M35.625 5H14.375C9.19733 5 5 9.19733 5 14.375V35.625C5 40.8027 9.19733 45 14.375 45H35.625C40.8027 45 45 40.8027 45 35.625V14.375C45 9.19733 40.8027 5 35.625 5Z" fill="url(#paint1_radial_257_1322)"/>
<path d="M25.0014 9.375C20.758 9.375 20.2253 9.39359 18.5588 9.46938C16.8953 9.54563 15.7598 9.80891 14.7664 10.1953C13.7386 10.5944 12.8669 11.1283 11.9984 11.997C11.1292 12.8656 10.5953 13.7373 10.195 14.7647C9.8075 15.7584 9.54391 16.8944 9.46906 18.557C9.39453 20.2238 9.375 20.7566 9.375 25.0002C9.375 29.2438 9.39375 29.7747 9.46938 31.4412C9.54594 33.1047 9.80922 34.2402 10.1953 35.2336C10.5947 36.2614 11.1286 37.1331 11.9973 38.0016C12.8656 38.8708 13.7373 39.4059 14.7644 39.805C15.7586 40.1914 16.8942 40.4547 18.5573 40.5309C20.2241 40.6067 20.7563 40.6253 24.9995 40.6253C29.2434 40.6253 29.7744 40.6067 31.4409 40.5309C33.1044 40.4547 34.2411 40.1914 35.2353 39.805C36.2627 39.4059 37.1331 38.8708 38.0012 38.0016C38.8705 37.1331 39.4042 36.2614 39.8047 35.2341C40.1887 34.2402 40.4525 33.1044 40.5306 31.4416C40.6055 29.775 40.625 29.2438 40.625 25.0002C40.625 20.7566 40.6055 20.2241 40.5306 18.5573C40.4525 16.8939 40.1887 15.7586 39.8047 14.7652C39.4042 13.7373 38.8705 12.8656 38.0012 11.997C37.1322 11.128 36.263 10.5941 35.2344 10.1955C34.2383 9.80891 33.1022 9.54547 31.4387 9.46938C29.772 9.39359 29.2414 9.375 24.9966 9.375H25.0014ZM23.5997 12.1908C24.0158 12.1902 24.48 12.1908 25.0014 12.1908C29.1734 12.1908 29.6678 12.2058 31.3153 12.2806C32.8387 12.3503 33.6656 12.6048 34.2164 12.8188C34.9456 13.1019 35.4655 13.4405 36.012 13.9875C36.5589 14.5344 36.8973 15.0552 37.1813 15.7844C37.3952 16.3344 37.65 17.1613 37.7194 18.6847C37.7942 20.3319 37.8105 20.8266 37.8105 24.9966C37.8105 29.1666 37.7942 29.6614 37.7194 31.3084C37.6497 32.8319 37.3952 33.6587 37.1813 34.2089C36.8981 34.9381 36.5589 35.4573 36.012 36.0039C35.4652 36.5508 34.9459 36.8892 34.2164 37.1725C33.6663 37.3873 32.8387 37.6413 31.3153 37.7109C29.6681 37.7858 29.1734 37.802 25.0014 37.802C20.8292 37.802 20.3347 37.7858 18.6877 37.7109C17.1642 37.6406 16.3373 37.3861 15.7861 37.1722C15.057 36.8889 14.5361 36.5505 13.9892 36.0036C13.4423 35.4567 13.1039 34.9372 12.82 34.2077C12.6061 33.6575 12.3512 32.8306 12.2819 31.3072C12.207 29.66 12.192 29.1653 12.192 24.9927C12.192 20.82 12.207 20.328 12.2819 18.6808C12.3516 17.1573 12.6061 16.3305 12.82 15.7797C13.1033 15.0505 13.4423 14.5297 13.9894 13.9828C14.5364 13.4359 15.057 13.0973 15.7862 12.8136C16.337 12.5988 17.1642 12.3448 18.6877 12.2748C20.1291 12.2097 20.6877 12.1902 23.5997 12.1869V12.1908ZM33.342 14.7852C32.3069 14.7852 31.467 15.6242 31.467 16.6595C31.467 17.6947 32.3069 18.5345 33.342 18.5345C34.3772 18.5345 35.217 17.6947 35.217 16.6595C35.217 15.6244 34.3772 14.7845 33.342 14.7845V14.7852ZM25.0014 16.9759C20.5702 16.9759 16.9773 20.5688 16.9773 25.0002C16.9773 29.4316 20.5702 33.0227 25.0014 33.0227C29.4328 33.0227 33.0244 29.4316 33.0244 25.0002C33.0244 20.5689 29.4325 16.9759 25.0011 16.9759H25.0014ZM25.0014 19.7917C27.8778 19.7917 30.2098 22.1234 30.2098 25.0002C30.2098 27.8766 27.8778 30.2086 25.0014 30.2086C22.125 30.2086 19.7931 27.8766 19.7931 25.0002C19.7931 22.1234 22.1248 19.7917 25.0014 19.7917Z" fill="white"/>
<defs>
<radialGradient id="paint0_radial_257_1322" cx="0" cy="0" r="1" gradientUnits="userSpaceOnUse" gradientTransform="translate(15.625 48.0808) rotate(-90) scale(39.643 36.8711)">
<stop stop-color="#FFDD55"/>
<stop offset="0.1" stop-color="#FFDD55"/>
<stop offset="0.5" stop-color="#FF543E"/>
<stop offset="1" stop-color="#C837AB"/>
</radialGradient>
<radialGradient id="paint1_radial_257_1322" cx="0" cy="0" r="1" gradientUnits="userSpaceOnUse" gradientTransform="translate(-1.70016 7.88141) rotate(78.681) scale(17.7206 73.045)">
<stop stop-color="#3771C8"/>
<stop offset="0.128" stop-color="#3771C8"/>
<stop offset="1" stop-color="#6600FF" stop-opacity="0"/>
</radialGradient>
</defs>
</svg>
