<svg width="20" height="20" viewBox="0 0 20 20" fill="none" xmlns="http://www.w3.org/2000/svg">
<path d="M17.4612 2.54041C16.2966 1.37581 14.4084 1.37586 13.2439 2.54053L3.28549 12.5001C2.94688 12.8387 2.70888 13.2647 2.59797 13.7305L1.68498 17.5651C1.63471 17.7762 1.69757 17.9983 1.85103 18.1517C2.00451 18.3052 2.22661 18.3681 2.43774 18.3178L6.27212 17.4049C6.73812 17.2939 7.16418 17.0558 7.50289 16.7171L8.46222 15.7577C8.37863 15.3797 8.33463 14.9868 8.33463 14.5837C8.33463 14.4192 8.34197 14.2564 8.3563 14.0957L6.61896 15.8332C6.44383 16.0084 6.22353 16.1315 5.98259 16.1889L3.13623 16.8666L3.81398 14.0201C3.87132 13.7792 3.99437 13.559 4.16943 13.3839L12.5013 5.05102L14.9508 7.50047L13.2627 9.18874C13.4236 9.17432 13.5866 9.16699 13.7513 9.16699C14.1542 9.16699 14.5469 9.21099 14.9247 9.29441L17.4613 6.7575C18.6257 5.59292 18.6257 3.70491 17.4612 2.54041ZM14.1278 3.42436C14.8041 2.7479 15.9009 2.74787 16.5773 3.42429C17.2536 4.10066 17.2537 5.19726 16.5774 5.87367L15.8346 6.61654L13.3851 4.16709L14.1278 3.42436ZM11.0656 11.6469C11.328 12.5554 10.7826 13.4999 9.86464 13.7271L9.3778 13.8475C9.34038 14.0872 9.32097 14.3332 9.32097 14.5839C9.32097 14.8462 9.34222 15.1032 9.38313 15.3534L9.83263 15.4617C10.7598 15.685 11.3109 16.6392 11.041 17.5537L10.8857 18.0798C11.2517 18.4012 11.6687 18.6622 12.1226 18.8477L12.5336 18.4155C13.1907 17.7245 14.2926 17.7247 14.9496 18.4159L15.3651 18.8532C15.8181 18.6697 16.2347 18.4112 16.6008 18.0925L16.4358 17.5209C16.1735 16.6123 16.7188 15.6678 17.6368 15.4407L18.1232 15.3203C18.1606 15.0806 18.1801 14.8346 18.1801 14.5839C18.1801 14.3217 18.1588 14.0645 18.1179 13.8142L17.6687 13.7061C16.7416 13.4828 16.1906 12.5287 16.4605 11.614L16.6156 11.0883C16.2496 10.7668 15.8326 10.5058 15.3787 10.3202L14.9678 10.7522C14.3107 11.4433 13.2088 11.4431 12.5519 10.7518L12.1362 10.3145C11.6833 10.498 11.2666 10.7564 10.9006 11.0751L11.0656 11.6469ZM13.7506 15.8339C13.0833 15.8339 12.5425 15.2742 12.5425 14.5839C12.5425 13.8936 13.0833 13.3339 13.7506 13.3339C14.4177 13.3339 14.9586 13.8936 14.9586 14.5839C14.9586 15.2742 14.4177 15.8339 13.7506 15.8339Z" fill="#212121"/>
</svg>
