<svg width="1126" height="256" viewBox="0 0 1126 256" fill="none" xmlns="http://www.w3.org/2000/svg" xmlns:xlink="http://www.w3.org/1999/xlink">
<rect width="1126" height="256" rx="22" fill="#D0D0D1"/>
<rect width="1126" height="256" rx="22" fill="url(#pattern0_700_1499)" fill-opacity="0.2"/>
<defs>
<pattern id="pattern0_700_1499" patternUnits="userSpaceOnUse" patternTransform="matrix(254.523 0 0 141.182 461.881 2.33007)" preserveAspectRatio="none" viewBox="14.573 2.33007 254.523 141.182" width="1" height="1">
<g id="pattern0_700_1499_inner">
<path d="M31.5327 103.42C28.9573 100.546 25.1245 100.404 22.0171 102.198C17.7322 104.672 16.3032 109.901 19.8346 116.018C23.3661 122.135 28.6099 123.512 32.8948 121.038C36.0022 119.244 37.7628 115.873 36.6128 112.219L39.5566 110.519C41.5011 115.851 39.2895 121.01 34.4811 123.786C28.3972 127.299 21.3135 125.152 16.9889 117.661C12.6643 110.171 14.3468 102.963 20.4308 99.4501C25.2064 96.6929 30.7607 97.324 34.4766 101.721L31.5327 103.42Z" fill="#86868A"/>
<path d="M55.0743 111.94C50.2333 114.735 44.8662 112.993 41.6746 107.465C38.4831 101.937 39.6389 96.385 44.4799 93.59C49.2882 90.8139 54.6416 92.6078 57.8331 98.1357C61.0247 103.664 59.8827 109.164 55.0743 111.94ZM53.6391 109.454C57.2044 107.396 57.0597 103.292 55.0201 99.7598C52.9805 96.2272 49.4805 94.0175 45.9152 96.076C42.2844 98.1722 42.4481 102.308 44.4876 105.841C46.5272 109.373 50.0083 111.55 53.6391 109.454Z" fill="#86868A"/>
<path d="M66.6093 104.801L56.3549 87.0393L59.0698 85.4719L60.675 88.2522L60.9039 88.12C60.5609 85.7885 61.6197 83.6943 63.9421 82.3535C66.2645 81.0127 68.4766 81.2183 70.4224 82.6245L70.6187 82.5112C70.477 80.1507 71.6616 77.8967 74.2129 76.4237C77.3858 74.5918 80.7569 75.2186 83.1742 79.4055L90.0294 91.279L87.2164 92.9031L80.38 81.0623C78.8693 78.4455 76.6156 78.3946 74.6858 79.5089C72.1998 80.9441 71.7565 83.4243 73.0595 85.6813L79.7259 97.2278L76.8801 98.8708L69.8739 86.7355C68.7219 84.7402 66.5084 84.2301 64.4804 85.4009C62.3543 86.6285 61.5285 89.5039 63.0204 92.088L69.4224 103.177L66.6093 104.801Z" fill="#86868A"/>
<path d="M94.5433 88.6729L84.2888 70.9116L87.1019 69.2875L97.3563 87.0488L94.5433 88.6729ZM83.9957 67.1557C82.9163 67.7789 81.561 67.4711 80.9567 66.4244C80.3524 65.3777 80.7634 64.05 81.8428 63.4268C82.9222 62.8036 84.3102 63.0926 84.9145 64.1393C85.5189 65.186 85.0751 66.5325 83.9957 67.1557Z" fill="#86868A"/>
<path d="M98.4941 72.1742L104.651 82.8375L101.838 84.4616L91.5831 66.7003L94.298 65.1329L95.9032 67.9132L96.1321 67.781C95.9439 65.491 96.8807 63.3365 99.5955 61.769C103.194 59.6917 106.847 60.5046 109.453 65.0185L115.968 76.3033L113.155 77.9274L106.753 66.8389C105.167 64.0913 102.718 63.3245 100.199 64.7787C97.6152 66.2706 96.7189 69.0995 98.4941 72.1742Z" fill="#86868A"/>
<path d="M131.738 76.5751C127.453 79.049 123.466 78.8653 121.231 75.7505L124.175 74.0509C125.606 75.6233 127.803 75.576 130.322 74.1219C133.364 72.3656 134.473 69.9808 132.773 67.0369L130.696 63.4389L130.467 63.5711C130.445 64.8923 130.471 67.5812 127.036 69.5641C122.719 72.057 117.592 70.6556 114.363 65.0623C111.209 59.5998 112.385 54.385 116.833 51.8167C120.268 49.8338 122.589 51.2851 123.791 51.856L124.02 51.7238L122.395 48.9108L125.143 47.3244L135.681 65.5764C138.325 70.1557 136.056 74.0823 131.738 76.5751ZM125.975 66.8189C129.213 64.9493 129.704 61.5694 127.438 57.6442C125.247 53.8499 121.951 52.2202 118.647 54.1276C115.246 56.0916 115.207 59.9521 117.265 63.5174C119.399 67.2136 122.606 68.764 125.975 66.8189Z" fill="#86868A"/>
<path d="M150.572 38.7926C149.329 37.5473 147.651 37.2081 145.557 38.4167C143.366 39.682 142.476 41.766 143.344 43.2707C144.024 44.4482 145.445 44.7183 147.821 44.0003L150.849 43.1248C154.456 42.0453 156.932 42.7089 158.368 45.1948C160.143 48.2695 158.927 51.9806 154.479 54.549C150.488 56.8529 147.081 56.4652 144.753 53.4913L147.697 51.7917C149.025 53.3364 150.773 53.4177 152.997 52.1335C155.516 50.6794 156.514 48.7073 155.551 47.0391C154.833 45.7962 153.459 45.4556 151.167 46.1685L148.126 47.0956C144.603 48.1701 141.985 47.4134 140.626 45.0583C138.869 42.0163 140.254 38.2951 144.179 36.0289C147.842 33.9138 151.298 34.5356 153.319 37.2063L150.572 38.7926Z" fill="#86868A"/>
<path d="M172.371 44.2189C167.53 47.0139 162.163 45.2716 158.971 39.7437C155.78 34.2158 156.935 28.6638 161.776 25.8689C166.585 23.0928 171.938 24.8867 175.13 30.4146C178.321 35.9425 177.179 41.4428 172.371 44.2189ZM170.936 41.733C174.501 39.6745 174.356 35.5713 172.317 32.0387C170.277 28.506 166.777 26.2963 163.212 28.3548C159.581 30.451 159.745 34.587 161.784 38.1196C163.824 41.6522 167.305 43.8292 170.936 41.733Z" fill="#86868A"/>
<path d="M191.375 33.2468C186.534 36.0418 181.167 34.2995 177.975 28.7716C174.784 23.2437 175.94 17.6917 180.781 14.8967C185.589 12.1207 190.942 13.9145 194.134 19.4425C197.325 24.9704 196.183 30.4707 191.375 33.2468ZM189.94 30.7609C193.505 28.7024 193.36 24.5992 191.321 21.0666C189.281 17.5339 185.781 15.3242 182.216 17.3827C178.585 19.4789 178.749 23.6148 180.788 27.1475C182.828 30.6801 186.309 32.8571 189.94 30.7609Z" fill="#86868A"/>
<path d="M199.567 13.8199L205.723 24.4832L202.91 26.1073L192.656 8.34604L195.37 6.7786L196.976 9.55891L197.205 9.42672C197.016 7.13668 197.953 4.98219 200.668 3.41474C204.266 1.33741 207.919 2.15035 210.525 6.66427L217.041 17.9491L214.228 19.5732L207.826 8.48462C206.239 5.73702 203.79 4.97025 201.272 6.42439C198.688 7.91629 197.791 10.7452 199.567 13.8199Z" fill="#86868A"/>
</g>
</pattern></defs>
</svg>
