<svg width="2763" height="2700" viewBox="0 0 2763 2700" fill="none" xmlns="http://www.w3.org/2000/svg">
<g clip-path="url(#clip0_540_1143)">
<rect width="2763" height="2700" fill="url(#paint0_radial_540_1143)"/>
<g opacity="0.5" filter="url(#filter0_f_540_1143)">
<circle cx="864.867" cy="1499.79" r="619.41" fill="#60E4FF"/>
</g>
<g filter="url(#filter1_f_540_1143)">
<ellipse cx="2219.48" cy="1962.27" rx="471.816" ry="471.47" fill="#ACB0FF" fill-opacity="0.5"/>
</g>
<g style="mix-blend-mode:color-burn" opacity="0.3">
<path d="M1959.26 530.013L1323.89 696.706V2742.06C1323.89 2784.06 1357.94 2818.11 1399.94 2818.11H1978.56C2020.56 2818.11 2054.6 2784.06 2054.6 2742.06V603.568C2054.6 553.731 2007.47 517.366 1959.26 530.013Z" fill="#6BDDBF"/>
</g>
<g style="mix-blend-mode:color-burn" opacity="0.3">
<path d="M1946.38 1461.27L1390.26 1188.37V2742.06C1390.26 2784.06 1424.3 2818.11 1466.3 2818.11H1912.89C1954.88 2818.11 1988.93 2784.06 1988.93 2742.06V1529.53C1988.93 1500.52 1972.43 1474.04 1946.38 1461.27Z" fill="url(#paint1_linear_540_1143)"/>
</g>
<g style="mix-blend-mode:color-burn" opacity="0.3">
<path d="M1385.42 1844.64H1059.81V2609.33C1059.81 2651.33 1093.86 2685.38 1135.86 2685.38H1385.42C1427.42 2685.38 1461.46 2651.33 1461.46 2609.33V1920.68C1461.46 1878.69 1427.42 1844.64 1385.42 1844.64Z" fill="#D0F7EA"/>
</g>
<g style="mix-blend-mode:color-burn" opacity="0.3">
<path d="M2222.59 2083.59H1896.99V2609.33C1896.99 2651.33 1931.03 2685.38 1973.03 2685.38H2222.59C2264.59 2685.38 2298.63 2651.33 2298.63 2609.33V2159.63C2298.63 2117.63 2264.59 2083.59 2222.59 2083.59Z" fill="#D0F7EA"/>
</g>
<g style="mix-blend-mode:color-burn" opacity="0.3">
<path d="M385.101 1018.18H110.652V2742.06C110.652 2784.06 144.698 2818.11 186.696 2818.11H385.101C427.098 2818.11 461.144 2784.06 461.144 2742.06V1094.22C461.144 1052.23 427.098 1018.18 385.101 1018.18Z" fill="#A2EDD7"/>
</g>
<g style="mix-blend-mode:color-burn" opacity="0.3">
<path d="M2213.3 1215.45L2762.5 1010.65V2609.33C2762.5 2651.33 2728.45 2685.38 2686.46 2685.38H2239.87C2197.88 2685.38 2163.83 2651.33 2163.83 2609.33V1286.7C2163.83 1254.95 2183.55 1226.54 2213.3 1215.45Z" fill="#A2EDD7"/>
</g>
<g style="mix-blend-mode:color-burn" opacity="0.3">
<path d="M358.958 1760.14L-76 1558.93V2712.34C-76 2754.34 -41.9541 2788.38 0.0436478 2788.38H327.031C369.029 2788.38 403.075 2754.34 403.075 2712.34V1829.16C403.075 1799.52 385.856 1772.58 358.958 1760.14Z" fill="url(#paint2_linear_540_1143)"/>
</g>
<g style="mix-blend-mode:color-burn" opacity="0.3">
<path d="M676.831 1991.68H351.227V2609.33C351.227 2651.33 385.272 2685.38 427.27 2685.38H676.831C718.829 2685.38 752.875 2651.33 752.875 2609.33V2067.73C752.875 2025.73 718.829 1991.68 676.831 1991.68Z" fill="#D0F7EA"/>
</g>
<g style="mix-blend-mode:color-burn" opacity="0.3">
<path d="M672.562 2185.57L1119.14 1979.02C1169.54 1955.72 1227.11 1992.52 1227.11 2048.04V3389.13C1227.11 3431.12 1193.06 3465.17 1151.07 3465.17H704.483C662.486 3465.17 628.44 3431.12 628.44 3389.13V2254.59C628.44 2224.95 645.661 2198.01 672.562 2185.57Z" fill="#6BDDBF"/>
</g>
<g style="mix-blend-mode:color-burn" opacity="0.3">
<path d="M1123.53 2786.6L688.584 2585.51V3738.24C688.584 3780.23 722.63 3814.28 764.628 3814.28H1091.62C1133.61 3814.28 1167.66 3780.23 1167.66 3738.24V2855.62C1167.66 2825.98 1150.43 2799.04 1123.53 2786.6Z" fill="url(#paint3_linear_540_1143)"/>
</g>
<g filter="url(#filter2_d_540_1143)">
<mask id="path-13-outside-1_540_1143" maskUnits="userSpaceOnUse" x="511" y="1187" width="1751" height="387" fill="black">
<rect fill="white" x="511" y="1187" width="1751" height="387"/>
<path d="M512.216 1493V1209.08H633C696.529 1209.08 738.098 1249.08 738.098 1308.69C738.098 1369.47 695.353 1407.51 630.647 1407.51H586.725V1493H512.216ZM586.725 1349.47H615.745C643.98 1349.47 660.059 1333.78 660.059 1308.69C660.059 1283.98 643.98 1268.69 615.745 1268.69H586.725V1349.47ZM865.549 1496.92C796.922 1496.92 755.745 1452.61 755.745 1387.12C755.745 1321.63 796.922 1277.31 865.549 1277.31C934.176 1277.31 974.961 1321.63 974.961 1387.12C974.961 1452.61 934.176 1496.92 865.549 1496.92ZM865.941 1442.02C886.725 1442.02 899.275 1420.45 899.275 1386.73C899.275 1352.61 886.725 1331.43 865.941 1331.43C844.373 1331.43 831.431 1352.61 831.431 1386.73C831.431 1420.45 844.373 1442.02 865.941 1442.02ZM1007.12 1493V1280.06H1078.88V1320.06H1081.24C1089.08 1290.65 1106.73 1277.31 1129.86 1277.31C1136.53 1277.31 1143.2 1278.1 1149.08 1279.67V1343.59C1141.63 1340.84 1129.08 1339.67 1121.24 1339.67C1098.1 1339.67 1081.24 1356.14 1081.24 1380.84V1493H1007.12ZM1309.08 1280.06V1333.78H1271.82V1424.76C1271.82 1434.96 1276.92 1438.88 1287.12 1439.27C1292.61 1439.67 1303.59 1438.88 1311.82 1438.1V1493.39C1304.76 1494.57 1293.39 1496.14 1276.53 1496.14C1224.76 1496.14 1197.31 1476.53 1197.71 1432.22V1333.78H1170.25V1280.06H1197.71V1229.08H1271.82V1280.06H1309.08ZM1340.84 1573V1280.06H1414.18V1316.92H1416.14C1424.37 1295.75 1443.98 1277.31 1476.14 1277.31C1518.88 1277.31 1559.67 1309.86 1559.67 1386.73C1559.67 1460.06 1521.24 1495.75 1475.35 1495.75C1444.76 1495.75 1424.76 1479.27 1416.14 1458.1H1414.96V1573H1340.84ZM1413.39 1386.33C1413.39 1418.49 1426.33 1438.88 1448.69 1438.88C1470.65 1438.88 1483.59 1418.88 1483.59 1386.33C1483.59 1354.18 1470.65 1334.57 1448.69 1334.57C1426.33 1334.57 1413.39 1354.18 1413.39 1386.33ZM1694.18 1496.92C1625.55 1496.92 1584.37 1452.61 1584.37 1387.12C1584.37 1321.63 1625.55 1277.31 1694.18 1277.31C1762.8 1277.31 1803.59 1321.63 1803.59 1387.12C1803.59 1452.61 1762.8 1496.92 1694.18 1496.92ZM1694.57 1442.02C1715.35 1442.02 1727.9 1420.45 1727.9 1386.73C1727.9 1352.61 1715.35 1331.43 1694.57 1331.43C1673 1331.43 1660.06 1352.61 1660.06 1386.73C1660.06 1420.45 1673 1442.02 1694.57 1442.02ZM1909.86 1209.08V1493H1835.75V1209.08H1909.86ZM1949.47 1493V1280.06H2023.59V1493H1949.47ZM1986.33 1256.92C1965.94 1256.92 1949.47 1241.63 1949.47 1222.8C1949.47 1203.98 1965.94 1188.69 1986.33 1188.69C2006.73 1188.69 2023.2 1203.98 2023.2 1222.8C2023.2 1241.63 2006.73 1256.92 1986.33 1256.92ZM2187.12 1348.69C2185.55 1335.35 2173 1327.12 2157.31 1327.12C2143.2 1327.12 2131.82 1332.61 2132.22 1342.02C2131.82 1348.69 2136.92 1354.57 2153.78 1357.71L2196.14 1365.55C2239.67 1373.39 2260.45 1391.82 2260.84 1423.2C2260.45 1468.29 2217.71 1496.92 2159.27 1496.92C2094.96 1496.92 2057.71 1468.29 2053.39 1425.16H2127.12C2129.47 1438.88 2141.63 1446.73 2159.67 1446.73C2174.57 1446.73 2185.16 1441.24 2185.55 1431.82C2185.16 1423.2 2177.71 1418.49 2160.45 1415.35L2123.2 1408.69C2080.06 1400.84 2058.49 1379.27 2058.49 1346.33C2058.49 1302.41 2095.75 1277.31 2155.75 1277.31C2216.14 1277.31 2253.39 1303.98 2255.35 1348.69H2187.12Z"/>
</mask>
<path d="M512.216 1493V1209.08H633C696.529 1209.08 738.098 1249.08 738.098 1308.69C738.098 1369.47 695.353 1407.51 630.647 1407.51H586.725V1493H512.216ZM586.725 1349.47H615.745C643.98 1349.47 660.059 1333.78 660.059 1308.69C660.059 1283.98 643.98 1268.69 615.745 1268.69H586.725V1349.47ZM865.549 1496.92C796.922 1496.92 755.745 1452.61 755.745 1387.12C755.745 1321.63 796.922 1277.31 865.549 1277.31C934.176 1277.31 974.961 1321.63 974.961 1387.12C974.961 1452.61 934.176 1496.92 865.549 1496.92ZM865.941 1442.02C886.725 1442.02 899.275 1420.45 899.275 1386.73C899.275 1352.61 886.725 1331.43 865.941 1331.43C844.373 1331.43 831.431 1352.61 831.431 1386.73C831.431 1420.45 844.373 1442.02 865.941 1442.02ZM1007.12 1493V1280.06H1078.88V1320.06H1081.24C1089.08 1290.65 1106.73 1277.31 1129.86 1277.31C1136.53 1277.31 1143.2 1278.1 1149.08 1279.67V1343.59C1141.63 1340.84 1129.08 1339.67 1121.24 1339.67C1098.1 1339.67 1081.24 1356.14 1081.24 1380.84V1493H1007.12ZM1309.08 1280.06V1333.78H1271.82V1424.76C1271.82 1434.96 1276.92 1438.88 1287.12 1439.27C1292.61 1439.67 1303.59 1438.88 1311.82 1438.1V1493.39C1304.76 1494.57 1293.39 1496.14 1276.53 1496.14C1224.76 1496.14 1197.31 1476.53 1197.71 1432.22V1333.78H1170.25V1280.06H1197.71V1229.08H1271.82V1280.06H1309.08ZM1340.84 1573V1280.06H1414.18V1316.92H1416.14C1424.37 1295.75 1443.98 1277.31 1476.14 1277.31C1518.88 1277.31 1559.67 1309.86 1559.67 1386.73C1559.67 1460.06 1521.24 1495.75 1475.35 1495.75C1444.76 1495.75 1424.76 1479.27 1416.14 1458.1H1414.96V1573H1340.84ZM1413.39 1386.33C1413.39 1418.49 1426.33 1438.88 1448.69 1438.88C1470.65 1438.88 1483.59 1418.88 1483.59 1386.33C1483.59 1354.18 1470.65 1334.57 1448.69 1334.57C1426.33 1334.57 1413.39 1354.18 1413.39 1386.33ZM1694.18 1496.92C1625.55 1496.92 1584.37 1452.61 1584.37 1387.12C1584.37 1321.63 1625.55 1277.31 1694.18 1277.31C1762.8 1277.31 1803.59 1321.63 1803.59 1387.12C1803.59 1452.61 1762.8 1496.92 1694.18 1496.92ZM1694.57 1442.02C1715.35 1442.02 1727.9 1420.45 1727.9 1386.73C1727.9 1352.61 1715.35 1331.43 1694.57 1331.43C1673 1331.43 1660.06 1352.61 1660.06 1386.73C1660.06 1420.45 1673 1442.02 1694.57 1442.02ZM1909.86 1209.08V1493H1835.75V1209.08H1909.86ZM1949.47 1493V1280.06H2023.59V1493H1949.47ZM1986.33 1256.92C1965.94 1256.92 1949.47 1241.63 1949.47 1222.8C1949.47 1203.98 1965.94 1188.69 1986.33 1188.69C2006.73 1188.69 2023.2 1203.98 2023.2 1222.8C2023.2 1241.63 2006.73 1256.92 1986.33 1256.92ZM2187.12 1348.69C2185.55 1335.35 2173 1327.12 2157.31 1327.12C2143.2 1327.12 2131.82 1332.61 2132.22 1342.02C2131.82 1348.69 2136.92 1354.57 2153.78 1357.71L2196.14 1365.55C2239.67 1373.39 2260.45 1391.82 2260.84 1423.2C2260.45 1468.29 2217.71 1496.92 2159.27 1496.92C2094.96 1496.92 2057.71 1468.29 2053.39 1425.16H2127.12C2129.47 1438.88 2141.63 1446.73 2159.67 1446.73C2174.57 1446.73 2185.16 1441.24 2185.55 1431.82C2185.16 1423.2 2177.71 1418.49 2160.45 1415.35L2123.2 1408.69C2080.06 1400.84 2058.49 1379.27 2058.49 1346.33C2058.49 1302.41 2095.75 1277.31 2155.75 1277.31C2216.14 1277.31 2253.39 1303.98 2255.35 1348.69H2187.12Z" fill="black"/>
<path d="M512.216 1493H511.216V1494H512.216V1493ZM512.216 1209.08V1208.08H511.216V1209.08H512.216ZM586.725 1407.51V1406.51H585.725V1407.51H586.725ZM586.725 1493V1494H587.725V1493H586.725ZM586.725 1349.47H585.725V1350.47H586.725V1349.47ZM586.725 1268.69V1267.69H585.725V1268.69H586.725ZM512.216 1493H513.216V1209.08H512.216H511.216V1493H512.216ZM512.216 1209.08V1210.08H633V1209.08V1208.08H512.216V1209.08ZM633 1209.08V1210.08C664.554 1210.08 690.566 1220.01 708.683 1237.25C726.796 1254.49 737.098 1279.12 737.098 1308.69H738.098H739.098C739.098 1278.64 728.616 1253.47 710.062 1235.81C691.512 1218.15 664.976 1208.08 633 1208.08V1209.08ZM738.098 1308.69H737.098C737.098 1338.83 726.506 1363.26 707.964 1380.15C689.411 1397.06 662.807 1406.51 630.647 1406.51V1407.51V1408.51C663.193 1408.51 690.314 1398.94 709.311 1381.63C728.318 1364.31 739.098 1339.33 739.098 1308.69H738.098ZM630.647 1407.51V1406.51H586.725V1407.51V1408.51H630.647V1407.51ZM586.725 1407.51H585.725V1493H586.725H587.725V1407.51H586.725ZM586.725 1493V1492H512.216V1493V1494H586.725V1493ZM586.725 1349.47V1350.47H615.745V1349.47V1348.47H586.725V1349.47ZM615.745 1349.47V1350.47C630.043 1350.47 641.392 1346.5 649.173 1339.22C656.963 1331.94 661.059 1321.45 661.059 1308.69H660.059H659.059C659.059 1321.02 655.116 1330.93 647.807 1337.76C640.491 1344.6 629.682 1348.47 615.745 1348.47V1349.47ZM660.059 1308.69H661.059C661.059 1296.11 656.959 1285.82 649.165 1278.68C641.383 1271.56 630.037 1267.69 615.745 1267.69V1268.69V1269.69C629.689 1269.69 640.5 1273.46 647.815 1280.16C655.119 1286.85 659.059 1296.56 659.059 1308.69H660.059ZM615.745 1268.69V1267.69H586.725V1268.69V1269.69H615.745V1268.69ZM586.725 1268.69H585.725V1349.47H586.725H587.725V1268.69H586.725ZM865.549 1496.92V1495.92C831.456 1495.92 804.28 1484.92 785.626 1465.88C766.969 1446.83 756.745 1419.65 756.745 1387.12H755.745H754.745C754.745 1420.07 765.109 1447.79 784.197 1467.28C803.289 1486.77 831.014 1497.92 865.549 1497.92V1496.92ZM755.745 1387.12H756.745C756.745 1354.58 766.969 1327.4 785.626 1308.36C804.28 1289.32 831.456 1278.31 865.549 1278.31V1277.31V1276.31C831.014 1276.31 803.289 1287.47 784.197 1306.96C765.109 1326.44 754.745 1354.16 754.745 1387.12H755.745ZM865.549 1277.31V1278.31C899.642 1278.31 926.719 1289.32 945.274 1308.35C963.833 1327.4 973.961 1354.58 973.961 1387.12H974.961H975.961C975.961 1354.16 965.697 1326.44 946.706 1306.96C927.712 1287.47 900.084 1276.31 865.549 1276.31V1277.31ZM974.961 1387.12H973.961C973.961 1419.65 963.833 1446.84 945.274 1465.88C926.719 1484.92 899.642 1495.92 865.549 1495.92V1496.92V1497.92C900.084 1497.92 927.712 1486.77 946.706 1467.28C965.697 1447.79 975.961 1420.07 975.961 1387.12H974.961ZM865.941 1442.02V1443.02C876.745 1443.02 885.377 1437.39 891.261 1427.53C897.121 1417.71 900.275 1403.69 900.275 1386.73H899.275H898.275C898.275 1403.48 895.153 1417.11 889.543 1426.51C883.956 1435.87 875.922 1441.02 865.941 1441.02V1442.02ZM899.275 1386.73H900.275C900.275 1369.56 897.122 1355.54 891.259 1345.77C885.372 1335.96 876.738 1330.43 865.941 1330.43V1331.43V1332.43C875.929 1332.43 883.961 1337.49 889.544 1346.8C895.153 1356.15 898.275 1369.77 898.275 1386.73H899.275ZM865.941 1331.43V1330.43C854.77 1330.43 845.839 1335.94 839.748 1345.76C833.684 1355.53 830.431 1369.56 830.431 1386.73H831.431H832.431C832.431 1369.77 835.65 1356.16 841.448 1346.81C847.219 1337.51 855.544 1332.43 865.941 1332.43V1331.43ZM831.431 1386.73H830.431C830.431 1403.7 833.684 1417.72 839.747 1427.54C845.834 1437.41 854.763 1443.02 865.941 1443.02V1442.02V1441.02C855.551 1441.02 847.224 1435.85 841.449 1426.49C835.649 1417.1 832.431 1403.48 832.431 1386.73H831.431ZM1007.12 1493H1006.12V1494H1007.12V1493ZM1007.12 1280.06V1279.06H1006.12V1280.06H1007.12ZM1078.88 1280.06H1079.88V1279.06H1078.88V1280.06ZM1078.88 1320.06H1077.88V1321.06H1078.88V1320.06ZM1081.24 1320.06V1321.06H1082L1082.2 1320.32L1081.24 1320.06ZM1149.08 1279.67H1150.08V1278.9L1149.34 1278.7L1149.08 1279.67ZM1149.08 1343.59L1148.73 1344.53L1150.08 1345.02V1343.59H1149.08ZM1081.24 1493V1494H1082.24V1493H1081.24ZM1007.12 1493H1008.12V1280.06H1007.12H1006.12V1493H1007.12ZM1007.12 1280.06V1281.06H1078.88V1280.06V1279.06H1007.12V1280.06ZM1078.88 1280.06H1077.88V1320.06H1078.88H1079.88V1280.06H1078.88ZM1078.88 1320.06V1321.06H1081.24V1320.06V1319.06H1078.88V1320.06ZM1081.24 1320.06L1082.2 1320.32C1086.09 1305.75 1092.37 1295.26 1100.46 1288.42C1108.54 1281.58 1118.5 1278.31 1129.86 1278.31V1277.31V1276.31C1118.09 1276.31 1107.66 1279.71 1099.17 1286.89C1090.69 1294.07 1084.23 1304.95 1080.27 1319.8L1081.24 1320.06ZM1129.86 1277.31V1278.31C1136.46 1278.31 1143.03 1279.09 1148.82 1280.63L1149.08 1279.67L1149.34 1278.7C1143.36 1277.11 1136.6 1276.31 1129.86 1276.31V1277.31ZM1149.08 1279.67H1148.08V1343.59H1149.08H1150.08V1279.67H1149.08ZM1149.08 1343.59L1149.42 1342.65C1141.81 1339.84 1129.12 1338.67 1121.24 1338.67V1339.67V1340.67C1129.04 1340.67 1141.45 1341.84 1148.73 1344.53L1149.08 1343.59ZM1121.24 1339.67V1338.67C1109.42 1338.67 1099.16 1342.88 1091.85 1350.29C1084.53 1357.7 1080.24 1368.26 1080.24 1380.84H1081.24H1082.24C1082.24 1368.72 1086.37 1358.69 1093.27 1351.69C1100.17 1344.69 1109.91 1340.67 1121.24 1340.67V1339.67ZM1081.24 1380.84H1080.24V1493H1081.24H1082.24V1380.84H1081.24ZM1081.24 1493V1492H1007.12V1493V1494H1081.24V1493ZM1309.08 1280.06H1310.08V1279.06H1309.08V1280.06ZM1309.08 1333.78V1334.78H1310.08V1333.78H1309.08ZM1271.82 1333.78V1332.78H1270.82V1333.78H1271.82ZM1287.12 1439.27L1287.19 1438.28L1287.17 1438.28L1287.16 1438.28L1287.12 1439.27ZM1311.82 1438.1H1312.82V1437L1311.73 1437.1L1311.82 1438.1ZM1311.82 1493.39L1311.99 1494.38L1312.82 1494.24V1493.39H1311.82ZM1197.71 1432.22L1198.71 1432.22V1432.22H1197.71ZM1197.71 1333.78H1198.71V1332.78H1197.71V1333.78ZM1170.25 1333.78H1169.25V1334.78H1170.25V1333.78ZM1170.25 1280.06V1279.06H1169.25V1280.06H1170.25ZM1197.71 1280.06V1281.06H1198.71V1280.06H1197.71ZM1197.71 1229.08V1228.08H1196.71V1229.08H1197.71ZM1271.82 1229.08H1272.82V1228.08H1271.82V1229.08ZM1271.82 1280.06H1270.82V1281.06H1271.82V1280.06ZM1309.08 1280.06H1308.08V1333.78H1309.08H1310.08V1280.06H1309.08ZM1309.08 1333.78V1332.78H1271.82V1333.78V1334.78H1309.08V1333.78ZM1271.82 1333.78H1270.82V1424.76H1271.82H1272.82V1333.78H1271.82ZM1271.82 1424.76H1270.82C1270.82 1430.02 1272.14 1433.87 1274.98 1436.44C1277.78 1438.97 1281.89 1440.07 1287.08 1440.27L1287.12 1439.27L1287.16 1438.28C1282.15 1438.08 1278.61 1437.03 1276.32 1434.95C1274.06 1432.91 1272.82 1429.71 1272.82 1424.76H1271.82ZM1287.12 1439.27L1287.05 1440.27C1292.63 1440.67 1303.7 1439.88 1311.92 1439.09L1311.82 1438.1L1311.73 1437.1C1303.48 1437.89 1292.58 1438.66 1287.19 1438.28L1287.12 1439.27ZM1311.82 1438.1H1310.82V1493.39H1311.82H1312.82V1438.1H1311.82ZM1311.82 1493.39L1311.66 1492.41C1304.64 1493.58 1293.33 1495.14 1276.53 1495.14V1496.14V1497.14C1293.46 1497.14 1304.89 1495.56 1311.99 1494.38L1311.82 1493.39ZM1276.53 1496.14V1495.14C1250.74 1495.14 1231.21 1490.25 1218.18 1480.01C1205.2 1469.81 1198.51 1454.16 1198.71 1432.22L1197.71 1432.22L1196.71 1432.21C1196.51 1454.58 1203.35 1470.9 1216.94 1481.58C1230.48 1492.22 1250.55 1497.14 1276.53 1497.14V1496.14ZM1197.71 1432.22H1198.71V1333.78H1197.71H1196.71V1432.22H1197.71ZM1197.71 1333.78V1332.78H1170.25V1333.78V1334.78H1197.71V1333.78ZM1170.25 1333.78H1171.25V1280.06H1170.25H1169.25V1333.78H1170.25ZM1170.25 1280.06V1281.06H1197.71V1280.06V1279.06H1170.25V1280.06ZM1197.71 1280.06H1198.71V1229.08H1197.71H1196.71V1280.06H1197.71ZM1197.71 1229.08V1230.08H1271.82V1229.08V1228.08H1197.71V1229.08ZM1271.82 1229.08H1270.82V1280.06H1271.82H1272.82V1229.08H1271.82ZM1271.82 1280.06V1281.06H1309.08V1280.06V1279.06H1271.82V1280.06ZM1340.84 1573H1339.84V1574H1340.84V1573ZM1340.84 1280.06V1279.06H1339.84V1280.06H1340.84ZM1414.18 1280.06H1415.18V1279.06H1414.18V1280.06ZM1414.18 1316.92H1413.18V1317.92H1414.18V1316.92ZM1416.14 1316.92V1317.92H1416.82L1417.07 1317.28L1416.14 1316.92ZM1416.14 1458.1L1417.06 1457.72L1416.81 1457.1H1416.14V1458.1ZM1414.96 1458.1V1457.1H1413.96V1458.1H1414.96ZM1414.96 1573V1574H1415.96V1573H1414.96ZM1340.84 1573H1341.84V1280.06H1340.84H1339.84V1573H1340.84ZM1340.84 1280.06V1281.06H1414.18V1280.06V1279.06H1340.84V1280.06ZM1414.18 1280.06H1413.18V1316.92H1414.18H1415.18V1280.06H1414.18ZM1414.18 1316.92V1317.92H1416.14V1316.92V1315.92H1414.18V1316.92ZM1416.14 1316.92L1417.07 1317.28C1425.17 1296.45 1444.44 1278.31 1476.14 1278.31V1277.31V1276.31C1443.52 1276.31 1423.57 1295.04 1415.21 1316.56L1416.14 1316.92ZM1476.14 1277.31V1278.31C1497.25 1278.31 1517.85 1286.35 1533.18 1303.85C1548.52 1321.37 1558.67 1348.47 1558.67 1386.73H1559.67H1560.67C1560.67 1348.12 1550.42 1320.51 1534.68 1302.54C1518.94 1284.56 1497.77 1276.31 1476.14 1276.31V1277.31ZM1559.67 1386.73H1558.67C1558.67 1423.22 1549.1 1450.23 1533.95 1468.09C1518.81 1485.94 1498.02 1494.75 1475.35 1494.75V1495.75V1496.75C1498.57 1496.75 1519.93 1487.71 1535.48 1469.38C1551.01 1451.07 1560.67 1423.56 1560.67 1386.73H1559.67ZM1475.35 1495.75V1494.75C1445.18 1494.75 1425.54 1478.53 1417.06 1457.72L1416.14 1458.1L1415.21 1458.48C1423.99 1480.02 1444.35 1496.75 1475.35 1496.75V1495.75ZM1416.14 1458.1V1457.1H1414.96V1458.1V1459.1H1416.14V1458.1ZM1414.96 1458.1H1413.96V1573H1414.96H1415.96V1458.1H1414.96ZM1414.96 1573V1572H1340.84V1573V1574H1414.96V1573ZM1413.39 1386.33H1412.39C1412.39 1402.53 1415.65 1415.88 1421.82 1425.22C1428.03 1434.6 1437.16 1439.88 1448.69 1439.88V1438.88V1437.88C1437.86 1437.88 1429.35 1432.97 1423.49 1424.12C1417.61 1415.22 1414.39 1402.3 1414.39 1386.33H1413.39ZM1448.69 1438.88V1439.88C1460.02 1439.88 1469.05 1434.7 1475.21 1425.36C1481.33 1416.07 1484.59 1402.72 1484.59 1386.33H1483.59H1482.59C1482.59 1402.5 1479.37 1415.42 1473.54 1424.26C1467.73 1433.07 1459.31 1437.88 1448.69 1437.88V1438.88ZM1483.59 1386.33H1484.59C1484.59 1370.14 1481.33 1356.98 1475.2 1347.84C1469.04 1338.65 1460.01 1333.57 1448.69 1333.57V1334.57V1335.57C1459.32 1335.57 1467.74 1340.29 1473.54 1348.95C1479.37 1357.65 1482.59 1370.37 1482.59 1386.33H1483.59ZM1448.69 1334.57V1333.57C1437.17 1333.57 1428.04 1338.64 1421.83 1347.83C1415.65 1356.98 1412.39 1370.14 1412.39 1386.33H1413.39H1414.39C1414.39 1370.37 1417.61 1357.65 1423.49 1348.95C1429.33 1340.3 1437.85 1335.57 1448.69 1335.57V1334.57ZM1694.18 1496.92V1495.92C1660.08 1495.92 1632.91 1484.92 1614.25 1465.88C1595.6 1446.83 1585.37 1419.65 1585.37 1387.12H1584.37H1583.37C1583.37 1420.07 1593.74 1447.79 1612.82 1467.28C1631.92 1486.77 1659.64 1497.92 1694.18 1497.92V1496.92ZM1584.37 1387.12H1585.37C1585.37 1354.58 1595.6 1327.4 1614.25 1308.36C1632.91 1289.32 1660.08 1278.31 1694.18 1278.31V1277.31V1276.31C1659.64 1276.31 1631.92 1287.47 1612.82 1306.96C1593.74 1326.44 1583.37 1354.16 1583.37 1387.12H1584.37ZM1694.18 1277.31V1278.31C1728.27 1278.31 1755.35 1289.32 1773.9 1308.35C1792.46 1327.4 1802.59 1354.58 1802.59 1387.12H1803.59H1804.59C1804.59 1354.16 1794.32 1326.44 1775.33 1306.96C1756.34 1287.47 1728.71 1276.31 1694.18 1276.31V1277.31ZM1803.59 1387.12H1802.59C1802.59 1419.65 1792.46 1446.84 1773.9 1465.88C1755.35 1484.92 1728.27 1495.92 1694.18 1495.92V1496.92V1497.92C1728.71 1497.92 1756.34 1486.77 1775.33 1467.28C1794.32 1447.79 1804.59 1420.07 1804.59 1387.12H1803.59ZM1694.57 1442.02V1443.02C1705.37 1443.02 1714 1437.39 1719.89 1427.53C1725.75 1417.71 1728.9 1403.69 1728.9 1386.73H1727.9H1726.9C1726.9 1403.48 1723.78 1417.11 1718.17 1426.51C1712.58 1435.87 1704.55 1441.02 1694.57 1441.02V1442.02ZM1727.9 1386.73H1728.9C1728.9 1369.56 1725.75 1355.54 1719.89 1345.77C1714 1335.96 1705.37 1330.43 1694.57 1330.43V1331.43V1332.43C1704.56 1332.43 1712.59 1337.49 1718.17 1346.8C1723.78 1356.15 1726.9 1369.77 1726.9 1386.73H1727.9ZM1694.57 1331.43V1330.43C1683.4 1330.43 1674.47 1335.94 1668.38 1345.76C1662.31 1355.53 1659.06 1369.56 1659.06 1386.73H1660.06H1661.06C1661.06 1369.77 1664.28 1356.16 1670.08 1346.81C1675.85 1337.51 1684.17 1332.43 1694.57 1332.43V1331.43ZM1660.06 1386.73H1659.06C1659.06 1403.7 1662.31 1417.72 1668.37 1427.54C1674.46 1437.41 1683.39 1443.02 1694.57 1443.02V1442.02V1441.02C1684.18 1441.02 1675.85 1435.85 1670.08 1426.49C1664.28 1417.1 1661.06 1403.48 1661.06 1386.73H1660.06ZM1909.86 1209.08H1910.86V1208.08H1909.86V1209.08ZM1909.86 1493V1494H1910.86V1493H1909.86ZM1835.75 1493H1834.75V1494H1835.75V1493ZM1835.75 1209.08V1208.08H1834.75V1209.08H1835.75ZM1909.86 1209.08H1908.86V1493H1909.86H1910.86V1209.08H1909.86ZM1909.86 1493V1492H1835.75V1493V1494H1909.86V1493ZM1835.75 1493H1836.75V1209.08H1835.75H1834.75V1493H1835.75ZM1835.75 1209.08V1210.08H1909.86V1209.08V1208.08H1835.75V1209.08ZM1949.47 1493H1948.47V1494H1949.47V1493ZM1949.47 1280.06V1279.06H1948.47V1280.06H1949.47ZM2023.59 1280.06H2024.59V1279.06H2023.59V1280.06ZM2023.59 1493V1494H2024.59V1493H2023.59ZM1949.47 1493H1950.47V1280.06H1949.47H1948.47V1493H1949.47ZM1949.47 1280.06V1281.06H2023.59V1280.06V1279.06H1949.47V1280.06ZM2023.59 1280.06H2022.59V1493H2023.59H2024.59V1280.06H2023.59ZM2023.59 1493V1492H1949.47V1493V1494H2023.59V1493ZM1986.33 1256.92V1255.92C1966.42 1255.92 1950.47 1241 1950.47 1222.8H1949.47H1948.47C1948.47 1242.25 1965.46 1257.92 1986.33 1257.92V1256.92ZM1949.47 1222.8H1950.47C1950.47 1204.6 1966.42 1189.69 1986.33 1189.69V1188.69V1187.69C1965.46 1187.69 1948.47 1203.36 1948.47 1222.8H1949.47ZM1986.33 1188.69V1189.69C2006.25 1189.69 2022.2 1204.6 2022.2 1222.8H2023.2H2024.2C2024.2 1203.36 2007.2 1187.69 1986.33 1187.69V1188.69ZM2023.2 1222.8H2022.2C2022.2 1241 2006.25 1255.92 1986.33 1255.92V1256.92V1257.92C2007.2 1257.92 2024.2 1242.25 2024.2 1222.8H2023.2ZM2187.12 1348.69L2186.12 1348.8L2186.23 1349.69H2187.12V1348.69ZM2132.22 1342.02L2133.21 1342.08L2133.22 1342.03L2133.21 1341.98L2132.22 1342.02ZM2153.78 1357.71L2153.6 1358.69L2153.6 1358.69L2153.78 1357.71ZM2196.14 1365.55L2195.96 1366.53L2195.96 1366.53L2196.14 1365.55ZM2260.84 1423.2L2261.84 1423.2L2261.84 1423.19L2261.84 1423.18L2260.84 1423.2ZM2053.39 1425.16V1424.16H2052.29L2052.4 1425.26L2053.39 1425.16ZM2127.12 1425.16L2128.1 1424.99L2127.96 1424.16H2127.12V1425.16ZM2185.55 1431.82L2186.55 1431.87L2186.55 1431.82L2186.55 1431.78L2185.55 1431.82ZM2160.45 1415.35L2160.63 1414.37L2160.63 1414.37L2160.45 1415.35ZM2123.2 1408.69L2123.02 1409.67L2123.02 1409.67L2123.2 1408.69ZM2255.35 1348.69V1349.69H2256.4L2256.35 1348.64L2255.35 1348.69ZM2187.12 1348.69L2188.11 1348.57C2186.46 1334.54 2173.29 1326.12 2157.31 1326.12V1327.12V1328.12C2172.71 1328.12 2184.64 1336.16 2186.12 1348.8L2187.12 1348.69ZM2157.31 1327.12V1326.12C2150.14 1326.12 2143.59 1327.51 2138.84 1330.17C2134.06 1332.83 2131 1336.86 2131.22 1342.06L2132.22 1342.02L2133.21 1341.98C2133.04 1337.77 2135.46 1334.34 2139.81 1331.91C2144.18 1329.47 2150.36 1328.12 2157.31 1328.12V1327.12ZM2132.22 1342.02L2131.22 1341.96C2131 1345.62 2132.32 1349.07 2135.9 1351.96C2139.42 1354.81 2145.1 1357.11 2153.6 1358.69L2153.78 1357.71L2153.97 1356.72C2145.6 1355.17 2140.3 1352.95 2137.16 1350.41C2134.07 1347.91 2133.04 1345.08 2133.21 1342.08L2132.22 1342.02ZM2153.78 1357.71L2153.6 1358.69L2195.96 1366.53L2196.14 1365.55L2196.32 1364.57L2153.97 1356.72L2153.78 1357.71ZM2196.14 1365.55L2195.96 1366.53C2217.64 1370.44 2233.51 1376.96 2244 1386.3C2254.45 1395.6 2259.65 1407.77 2259.84 1423.21L2260.84 1423.2L2261.84 1423.18C2261.64 1407.25 2256.25 1394.52 2245.33 1384.8C2234.45 1375.12 2218.17 1368.5 2196.31 1364.56L2196.14 1365.55ZM2260.84 1423.2L2259.84 1423.19C2259.65 1445.38 2249.05 1463.53 2231.24 1476.15C2213.42 1488.8 2188.34 1495.92 2159.27 1495.92V1496.92V1497.92C2188.64 1497.92 2214.15 1490.73 2232.4 1477.79C2250.68 1464.83 2261.64 1446.11 2261.84 1423.2L2260.84 1423.2ZM2159.27 1496.92V1495.92C2127.26 1495.92 2102.08 1488.79 2084.41 1476.4C2066.76 1464.02 2056.52 1446.34 2054.39 1425.06L2053.39 1425.16L2052.4 1425.26C2054.58 1447.11 2065.13 1465.32 2083.26 1478.03C2101.37 1490.74 2126.98 1497.92 2159.27 1497.92V1496.92ZM2053.39 1425.16V1426.16H2127.12V1425.16V1424.16H2053.39V1425.16ZM2127.12 1425.16L2126.13 1425.33C2127.36 1432.46 2131.14 1438.1 2136.96 1441.92C2142.76 1445.74 2150.51 1447.73 2159.67 1447.73V1446.73V1445.73C2150.78 1445.73 2143.44 1443.79 2138.06 1440.25C2132.7 1436.73 2129.23 1431.57 2128.1 1424.99L2127.12 1425.16ZM2159.67 1446.73V1447.73C2167.22 1447.73 2173.78 1446.34 2178.54 1443.68C2183.32 1441 2186.33 1437 2186.55 1431.87L2185.55 1431.82L2184.55 1431.78C2184.37 1436.06 2181.9 1439.51 2177.56 1441.93C2173.2 1444.37 2167.01 1445.73 2159.67 1445.73V1446.73ZM2185.55 1431.82L2186.55 1431.78C2186.34 1427.11 2184.18 1423.5 2179.87 1420.69C2175.63 1417.93 2169.29 1415.94 2160.63 1414.37L2160.45 1415.35L2160.27 1416.34C2168.87 1417.9 2174.88 1419.83 2178.78 1422.37C2182.6 1424.86 2184.37 1427.91 2184.55 1431.87L2185.55 1431.82ZM2160.45 1415.35L2160.63 1414.37L2123.37 1407.7L2123.2 1408.69L2123.02 1409.67L2160.27 1416.34L2160.45 1415.35ZM2123.2 1408.69L2123.37 1407.7C2101.92 1403.8 2085.96 1396.51 2075.36 1386.2C2064.79 1375.92 2059.49 1362.57 2059.49 1346.33H2058.49H2057.49C2057.49 1363.04 2062.97 1376.94 2073.97 1387.64C2084.94 1398.31 2101.33 1405.73 2123.02 1409.67L2123.2 1408.69ZM2058.49 1346.33H2059.49C2059.49 1324.7 2068.65 1307.75 2085.19 1296.17C2101.78 1284.57 2125.87 1278.31 2155.75 1278.31V1277.31V1276.31C2125.62 1276.31 2101.08 1282.61 2084.04 1294.53C2066.96 1306.49 2057.49 1324.05 2057.49 1346.33H2058.49ZM2155.75 1277.31V1278.31C2185.81 1278.31 2209.99 1284.95 2226.88 1297.05C2243.73 1309.12 2253.39 1326.68 2254.35 1348.73L2255.35 1348.69L2256.35 1348.64C2255.36 1325.99 2245.41 1307.86 2228.04 1295.42C2210.71 1283.01 2186.07 1276.31 2155.75 1276.31V1277.31ZM2255.35 1348.69V1347.69H2187.12V1348.69V1349.69H2255.35V1348.69Z" fill="#18574C" mask="url(#path-13-outside-1_540_1143)"/>
</g>
</g>
<defs>
<filter id="filter0_f_540_1143" x="-579.852" y="55.0704" width="2889.44" height="2889.44" filterUnits="userSpaceOnUse" color-interpolation-filters="sRGB">
<feFlood flood-opacity="0" result="BackgroundImageFix"/>
<feBlend mode="normal" in="SourceGraphic" in2="BackgroundImageFix" result="shape"/>
<feGaussianBlur stdDeviation="412.654" result="effect1_foregroundBlur_540_1143"/>
</filter>
<filter id="filter1_f_540_1143" x="922.356" y="665.493" width="2594.25" height="2593.56" filterUnits="userSpaceOnUse" color-interpolation-filters="sRGB">
<feFlood flood-opacity="0" result="BackgroundImageFix"/>
<feBlend mode="normal" in="SourceGraphic" in2="BackgroundImageFix" result="shape"/>
<feGaussianBlur stdDeviation="412.654" result="effect1_foregroundBlur_540_1143"/>
</filter>
<filter id="filter2_d_540_1143" x="361.216" y="1187.69" width="2050.63" height="686.314" filterUnits="userSpaceOnUse" color-interpolation-filters="sRGB">
<feFlood flood-opacity="0" result="BackgroundImageFix"/>
<feColorMatrix in="SourceAlpha" type="matrix" values="0 0 0 0 0 0 0 0 0 0 0 0 0 0 0 0 0 0 127 0" result="hardAlpha"/>
<feOffset dy="150"/>
<feGaussianBlur stdDeviation="75"/>
<feComposite in2="hardAlpha" operator="out"/>
<feColorMatrix type="matrix" values="0 0 0 0 0.0328638 0 0 0 0 0.380089 0 0 0 0 0.310006 0 0 0 0.05 0"/>
<feBlend mode="normal" in2="BackgroundImageFix" result="effect1_dropShadow_540_1143"/>
<feBlend mode="normal" in="SourceGraphic" in2="effect1_dropShadow_540_1143" result="shape"/>
</filter>
<radialGradient id="paint0_radial_540_1143" cx="0" cy="0" r="1" gradientUnits="userSpaceOnUse" gradientTransform="translate(1381.5 2418.5) rotate(-90) scale(1647 2451.16)">
<stop offset="0.581731" stop-color="#D0F7EA"/>
<stop offset="1" stop-color="#F1FCF8"/>
</radialGradient>
<linearGradient id="paint1_linear_540_1143" x1="1390.26" y1="1163.12" x2="2090.29" y2="2789.23" gradientUnits="userSpaceOnUse">
<stop stop-color="#3DC4A4"/>
<stop offset="1" stop-color="#0F866E"/>
</linearGradient>
<linearGradient id="paint2_linear_540_1143" x1="-76" y1="1539.88" x2="430.657" y2="2788.32" gradientUnits="userSpaceOnUse">
<stop stop-color="#3DC4A4"/>
<stop offset="1" stop-color="#0F866E"/>
</linearGradient>
<linearGradient id="paint3_linear_540_1143" x1="688.584" y1="2566.47" x2="1194.76" y2="3814.41" gradientUnits="userSpaceOnUse">
<stop stop-color="#3DC4A4"/>
<stop offset="1" stop-color="#0F866E"/>
</linearGradient>
<clipPath id="clip0_540_1143">
<rect width="2763" height="2700" fill="white"/>
</clipPath>
</defs>
</svg>
