<svg width="51" height="50" viewBox="0 0 51 50" fill="none" xmlns="http://www.w3.org/2000/svg">
<path d="M36.3371 5H14.6621C9.38089 5 5.09961 9.19733 5.09961 14.375V35.625C5.09961 40.8027 9.38089 45 14.6621 45H36.3371C41.6183 45 45.8996 40.8027 45.8996 35.625V14.375C45.8996 9.19733 41.6183 5 36.3371 5Z" fill="url(#paint0_radial_422_330)"/>
<path d="M36.3371 5H14.6621C9.38089 5 5.09961 9.19733 5.09961 14.375V35.625C5.09961 40.8027 9.38089 45 14.6621 45H36.3371C41.6183 45 45.8996 40.8027 45.8996 35.625V14.375C45.8996 9.19733 41.6183 5 36.3371 5Z" fill="url(#paint1_radial_422_330)"/>
<path d="M25.5014 9.375C21.1731 9.375 20.6298 9.39359 18.9299 9.46938C17.2332 9.54563 16.075 9.80891 15.0617 10.1953C14.0134 10.5944 13.1242 11.1283 12.2384 11.997C11.3518 12.8656 10.8072 13.7373 10.3989 14.7647C10.0037 15.7584 9.73478 16.8944 9.65844 18.557C9.58242 20.2238 9.5625 20.7566 9.5625 25.0002C9.5625 29.2438 9.58163 29.7747 9.65876 31.4412C9.73686 33.1047 10.0054 34.2402 10.3992 35.2336C10.8066 36.2614 11.3512 37.1331 12.2373 38.0016C13.1229 38.8708 14.0121 39.4059 15.0597 39.805C16.0738 40.1914 17.2321 40.4547 18.9285 40.5309C20.6285 40.6067 21.1714 40.6253 25.4995 40.6253C29.8283 40.6253 30.3699 40.6067 32.0698 40.5309C33.7665 40.4547 34.9259 40.1914 35.94 39.805C36.9879 39.4059 37.8758 38.8708 38.7613 38.0016C39.6479 37.1331 40.1923 36.2614 40.6008 35.2341C40.9925 34.2402 41.2615 33.1044 41.3412 31.4416C41.4176 29.775 41.4375 29.2438 41.4375 25.0002C41.4375 20.7566 41.4176 20.2241 41.3412 18.5573C41.2615 16.8939 40.9925 15.7586 40.6008 14.7652C40.1923 13.7373 39.6479 12.8656 38.7613 11.997C37.8748 11.128 36.9882 10.5941 35.9391 10.1955C34.923 9.80891 33.7642 9.54547 32.0675 9.46938C30.3675 9.39359 29.8262 9.375 25.4965 9.375H25.5014ZM24.0717 12.1908C24.4961 12.1902 24.9696 12.1908 25.5014 12.1908C29.7569 12.1908 30.2612 12.2058 31.9416 12.2806C33.4955 12.3503 34.3389 12.6048 34.9007 12.8188C35.6445 13.1019 36.1748 13.4405 36.7323 13.9875C37.2901 14.5344 37.6353 15.0552 37.9249 15.7844C38.1431 16.3344 38.403 17.1613 38.4738 18.6847C38.5501 20.3319 38.5667 20.8266 38.5667 24.9966C38.5667 29.1666 38.5501 29.6614 38.4738 31.3084C38.4027 32.8319 38.1431 33.6587 37.9249 34.2089C37.6361 34.9381 37.2901 35.4573 36.7323 36.0039C36.1745 36.5508 35.6449 36.8892 34.9007 37.1725C34.3396 37.3873 33.4955 37.6413 31.9416 37.7109C30.2615 37.7858 29.7569 37.802 25.5014 37.802C21.2458 37.802 20.7414 37.7858 19.0614 37.7109C17.5075 37.6406 16.6641 37.3861 16.1018 37.1722C15.3582 36.8889 14.8268 36.5505 14.269 36.0036C13.7112 35.4567 13.366 34.9372 13.0764 34.2077C12.8582 33.6575 12.5983 32.8306 12.5275 31.3072C12.4512 29.66 12.4359 29.1653 12.4359 24.9927C12.4359 20.82 12.4512 20.328 12.5275 18.6808C12.5986 17.1573 12.8582 16.3305 13.0764 15.7797C13.3653 15.0505 13.7112 14.5297 14.2692 13.9828C14.8271 13.4359 15.3582 13.0973 16.102 12.8136C16.6638 12.5988 17.5075 12.3448 19.0614 12.2748C20.5316 12.2097 21.1014 12.1902 24.0717 12.1869V12.1908ZM34.0089 14.7852C32.953 14.7852 32.0964 15.6242 32.0964 16.6595C32.0964 17.6947 32.953 18.5345 34.0089 18.5345C35.0647 18.5345 35.9214 17.6947 35.9214 16.6595C35.9214 15.6244 35.0647 14.7845 34.0089 14.7845V14.7852ZM25.5014 16.9759C20.9816 16.9759 17.3169 20.5688 17.3169 25.0002C17.3169 29.4316 20.9816 33.0227 25.5014 33.0227C30.0215 33.0227 33.6849 29.4316 33.6849 25.0002C33.6849 20.5689 30.0212 16.9759 25.5011 16.9759H25.5014ZM25.5014 19.7917C28.4354 19.7917 30.814 22.1234 30.814 25.0002C30.814 27.8766 28.4354 30.2086 25.5014 30.2086C22.5675 30.2086 20.189 27.8766 20.189 25.0002C20.189 22.1234 22.5673 19.7917 25.5014 19.7917Z" fill="white"/>
<defs>
<radialGradient id="paint0_radial_422_330" cx="0" cy="0" r="1" gradientUnits="userSpaceOnUse" gradientTransform="translate(15.9371 48.0808) rotate(-90) scale(39.643 37.6085)">
<stop stop-color="#FFDD55"/>
<stop offset="0.1" stop-color="#FFDD55"/>
<stop offset="0.5" stop-color="#FF543E"/>
<stop offset="1" stop-color="#C837AB"/>
</radialGradient>
<radialGradient id="paint1_radial_422_330" cx="0" cy="0" r="1" gradientTransform="matrix(3.54761 17.376 -73.0567 14.3366 -1.73455 7.88141)" gradientUnits="userSpaceOnUse">
<stop stop-color="#3771C8"/>
<stop offset="0.128" stop-color="#3771C8"/>
<stop offset="1" stop-color="#6600FF" stop-opacity="0"/>
</radialGradient>
</defs>
</svg>
