<svg width="50" height="50" viewBox="0 0 50 50" fill="none" xmlns="http://www.w3.org/2000/svg">
<path d="M45.711 14.5785C45.4625 13.66 44.9776 12.8226 44.3047 12.1497C43.6319 11.4768 42.7945 10.9919 41.8759 10.7433C38.5132 9.82617 24.979 9.82617 24.979 9.82617C24.979 9.82617 11.4443 9.85393 8.08147 10.7711C7.1629 11.0197 6.3255 11.5046 5.65263 12.1775C4.97977 12.8504 4.49493 13.6879 4.2464 14.6065C3.22924 20.5815 2.83466 29.686 4.27433 35.422C4.52289 36.3406 5.00774 37.178 5.6806 37.8509C6.35346 38.5238 7.19085 39.0087 8.1094 39.2573C11.4722 40.1744 25.0066 40.1744 25.0066 40.1744C25.0066 40.1744 38.5409 40.1744 41.9035 39.2573C42.8221 39.0087 43.6595 38.5238 44.3324 37.8509C45.0053 37.1781 45.4902 36.3406 45.7388 35.422C46.8116 29.4386 47.1422 20.3396 45.711 14.5785Z" fill="#FF0000"/>
<path d="M20.6699 31.4156L31.8973 24.9383L20.6699 18.4609V31.4156Z" fill="white"/>
</svg>
