<svg width="20" height="20" viewBox="0 0 20 20" fill="none" xmlns="http://www.w3.org/2000/svg">
<path d="M17.4612 2.54041C16.2966 1.37581 14.4084 1.37586 13.2439 2.54053L3.28549 12.5001C2.94688 12.8387 2.70888 13.2647 2.59797 13.7305L1.68498 17.5651C1.63471 17.7762 1.69757 17.9983 1.85103 18.1517C2.00451 18.3052 2.22661 18.3681 2.43774 18.3178L6.27212 17.4049C6.73812 17.2939 7.16418 17.0558 7.50289 16.7171L17.4613 6.7575C18.6257 5.59292 18.6257 3.70491 17.4612 2.54041ZM14.1278 3.42436C14.8041 2.7479 15.9009 2.74787 16.5773 3.42429C17.2536 4.10066 17.2537 5.19726 16.5774 5.87367L15.8346 6.61654L13.3851 4.16709L14.1278 3.42436ZM12.5013 5.05102L14.9508 7.50047L6.61896 15.8332C6.44383 16.0084 6.22353 16.1315 5.98259 16.1889L3.13623 16.8666L3.81398 14.0201C3.87132 13.7792 3.99437 13.559 4.16943 13.3839L12.5013 5.05102Z" fill="#212121"/>
</svg>
