<svg width="50" height="50" viewBox="0 0 50 50" fill="none" xmlns="http://www.w3.org/2000/svg">
<path d="M45.4545 27.2215V41.9491C45.4127 43.6617 44.5822 44.6076 42.8672 44.7502C40.8991 44.9123 38.9211 45.0155 36.9457 45.1335C32.9652 45.3792 28.984 45.62 25.0019 45.8558C21.476 46.0647 17.9502 46.249 14.4292 46.4873C12.8714 46.588 11.6454 46.0966 10.7829 44.76C10.5274 44.3644 10.2006 44.0081 9.91068 43.6297C8.43644 41.728 6.9745 39.8213 5.49289 37.9294C4.49713 36.7084 3.96844 35.1728 4.00146 33.5976C4.0506 25.219 4.02111 16.8454 4.02603 8.46926C4.02603 8.15312 4.0506 7.83862 4.09974 7.52575C4.32579 6.29722 5.08748 5.53554 6.33075 5.4176C8.36519 5.22595 10.4316 5.09327 12.4832 4.93847L22.2869 4.2161C25.427 3.98759 28.5671 3.76891 31.7072 3.52075C33.2811 3.39313 34.846 3.85751 36.0955 4.82299C38.8622 6.83041 41.673 8.77148 44.479 10.7298C44.8038 10.9381 45.0669 11.2296 45.241 11.5739C45.4151 11.9183 45.4939 12.303 45.4692 12.688C45.4422 17.5309 45.4545 22.3762 45.4545 27.2215ZM42.5994 27.4107V14.8699C42.5994 13.661 42.1743 13.2433 41.0023 13.3121L30.8055 13.892L18.2991 14.6242C16.8297 14.7077 15.3604 14.7978 13.8911 14.8945C13.1122 14.9485 12.7584 15.2925 12.6429 16.0567C12.6134 16.2778 12.6012 16.4989 12.6061 16.7201V40.9466C12.6061 42.8312 13.1073 43.3029 14.9992 43.1924C16.8912 43.0818 18.7807 42.959 20.6922 42.8484L40.9359 41.6862C42.0219 41.6248 42.5158 41.1457 42.6018 40.067C42.6166 39.8778 42.6018 39.6886 42.6018 39.4871L42.5994 27.4107ZM39.5354 10.4177L39.6017 10.2924C39.4533 10.1101 39.2889 9.94157 39.1103 9.7887C37.7688 8.80834 36.4125 7.84763 35.0734 6.882C34.1962 6.21123 33.1077 5.87461 32.0045 5.93604C29.8079 6.06872 27.6162 6.24317 25.4196 6.40288L11.3063 7.42747C10.294 7.50118 9.26939 7.57981 8.28165 7.69775C8.17112 7.71985 8.06714 7.767 7.97769 7.83558C7.88824 7.90415 7.8157 7.99233 7.76567 8.09333C7.7239 8.21373 7.92292 8.484 8.07771 8.60931C9.18339 9.50123 10.3087 10.3784 11.4242 11.258C12.0262 11.7593 12.7953 12.0197 13.5766 11.9878C13.9574 11.9706 14.3383 11.9878 14.7167 11.9534L24.9577 11.3244L38.5649 10.5234C38.8892 10.4857 39.2127 10.4505 39.5354 10.4177Z" fill="black"/>
<path d="M33.4025 31.6044V20.1545C32.7833 20.0808 32.1911 19.9948 31.5941 19.9506C31.2673 19.926 31.1911 19.7786 31.2255 19.4911C31.257 19.1793 31.3939 18.8875 31.6138 18.6641C31.8336 18.4407 32.1231 18.2991 32.4344 18.2626C34.4074 18.1152 36.3804 18.0144 38.3436 17.8965C38.636 18.8719 38.3436 19.3511 37.4099 19.5353C36.3804 19.7491 36.3804 19.7491 36.3804 20.7934V37.6119C36.3804 38.0026 36.2772 38.2409 35.9087 38.3564C35.2592 38.6001 34.5974 38.8092 33.9258 38.9829C32.8472 39.209 31.8914 38.9092 31.2501 37.978C30.3572 36.6914 29.4848 35.3906 28.6333 34.0762C26.6578 31.0196 24.7069 27.9508 22.7438 24.8868C22.7044 24.8229 22.6504 24.7615 22.5398 24.6092C22.5152 24.8205 22.4931 24.9409 22.4931 25.0662V36.5161C22.4931 36.8527 22.6012 36.9903 22.9256 37.0517C23.6529 37.1942 24.3777 37.3687 25.0878 37.5284C25.0753 37.8849 24.9339 38.2247 24.69 38.485C24.446 38.7452 24.1159 38.9082 23.761 38.9436C23.1653 39.0241 22.5657 39.0733 21.9649 39.0911C20.5103 39.1795 19.0557 39.2483 17.6036 39.3515C17.1785 39.381 17.0925 39.2041 17.1662 38.8576C17.1889 38.6499 17.2755 38.4544 17.4142 38.2981C17.5528 38.1419 17.7367 38.0326 17.9402 37.9854C18.3972 37.8748 18.8493 37.7298 19.3014 37.6021V21.1644L17.2645 20.9825C17.1965 20.7705 17.1781 20.5456 17.2107 20.3253C17.2433 20.105 17.3261 19.8952 17.4526 19.7119C17.5791 19.5286 17.746 19.3769 17.9405 19.2683C18.1349 19.1597 18.3517 19.0973 18.5741 19.0857C20.3555 18.9432 22.1491 18.8891 23.9256 18.6877C24.6848 18.6041 25.0386 18.8842 25.4195 19.4715C27.9331 23.3438 30.481 27.2014 33.0192 31.0614L33.4025 31.6044Z" fill="black"/>
</svg>
