<svg width="50" height="50" viewBox="0 0 50 50" fill="none" xmlns="http://www.w3.org/2000/svg">
<g clip-path="url(#clip0_422_317)">
<path d="M11.4111 29.1219C11.4111 25.9507 12.8159 16.9378 13.1195 16.9378C13.9404 18.5064 12.1826 28.9557 14.1919 29.3274C15.6842 29.2651 14.9611 18.2939 15.8237 16.9378C16.7183 18.3085 15.9546 29.151 17.5057 29.2461C19.3742 29.3607 18.0148 17.2676 18.653 16.9378C19.6318 17.7743 20.3017 26.5743 20.2354 29.1219C20.0953 34.5059 17.1111 34.3423 16.825 36.7133C16.7275 37.5482 16.5098 39.226 16.6141 41.988L23.5666 48.9405C23.7812 38.2029 23.1175 38.5179 23.009 37.7587V11.4935C23.009 9.25303 25.1067 8.19404 27.0365 13.1116C28.9663 18.0292 28.4276 35.5183 28.4276 36.762C28.0667 38.0408 26.8159 37.6929 26.2017 39.6759C25.9912 40.3552 25.7267 45.4698 25.745 49.628L35.3269 40.0463C35.1327 34.9139 35.3384 35.819 32.9764 33.5733C28.4715 29.0942 31.4623 18.0274 35.9578 17.7354C40.1562 17.9022 43.5547 28.9395 38.9402 33.5733C36.4988 35.5621 36.7512 35.8404 36.6135 38.7604L50 25.373L25 0.373047L0 25.373L15.0214 40.3944C15.0365 38.8184 15.0581 36.4181 14.2806 35.4346C13.4539 34.3891 11.5059 32.9626 11.4111 29.1219Z" fill="black"/>
</g>
<defs>
<clipPath id="clip0_422_317">
<rect width="50" height="50" fill="white"/>
</clipPath>
</defs>
</svg>
