<svg width="120" height="120" viewBox="0 0 120 120" fill="none" xmlns="http://www.w3.org/2000/svg">
<path d="M44.6967 50.0039L11.0983 16.4048C9.63386 14.9403 9.63391 12.566 11.0984 11.1015C12.5629 9.63707 14.9373 9.63708 16.4017 11.1016L108.901 103.602C110.365 105.067 110.365 107.441 108.901 108.905C107.436 110.37 105.062 110.37 103.597 108.905L70 75.3074L45.0096 100.3C42.9773 102.333 40.4209 103.762 37.6249 104.427L14.6187 109.905C13.3519 110.207 12.0193 109.829 11.0984 108.909C10.1776 107.988 9.80046 106.655 10.1021 105.388L15.58 82.3814C16.2455 79.5859 17.6735 77.0304 19.7052 74.9984L44.6967 50.0039ZM64.6965 70.0039L50 55.3074L25.0088 80.3014C23.9584 81.3519 23.2201 82.6734 22.8761 84.1184L18.8096 101.197L35.8878 97.1314C37.3334 96.7869 38.6552 96.0484 39.706 94.9974L64.6965 70.0039ZM99.4565 35.2401L75.3015 59.3979L80.605 64.7009L94.9975 50.3069C98.3885 53.7259 98.38 59.2469 94.9715 62.6554L86.765 70.8614L92.0685 76.1649L100.275 67.9584C106.612 61.6209 106.621 51.3514 100.301 45.0032L104.76 40.543C111.747 33.5556 111.747 22.2275 104.76 15.2405C97.7715 8.25288 86.4425 8.25322 79.4555 15.2412L55.302 39.3975L60.605 44.7009L84.759 20.5442C88.817 16.4854 95.3975 16.4852 99.456 20.5438C103.514 24.602 103.515 31.1816 99.4565 35.2401Z" fill="#E6E6E7"/>
</svg>
